<?xml version="1.0" encoding="UTF-8"?>
<svg width="19px" height="19px" viewBox="0 0 19 19" version="1.1" xmlns="http://www.w3.org/2000/svg" xmlns:xlink="http://www.w3.org/1999/xlink">
    <title>Shape</title>
    <g id="Page-1" stroke="none" stroke-width="1" fill="none" fill-rule="evenodd">
        <g id="Artboard-Copy" transform="translate(-759.000000, -1696.000000)" fill="#2FCC71" fill-rule="nonzero">
            <path d="M773.376116,1704.4096 L768.195313,1709.5904 C768.039807,1709.74591 767.855655,1709.82366 767.642857,1709.82366 C767.43006,1709.82366 767.245908,1709.74591 767.090402,1709.5904 L763.481027,1705.98103 C763.325521,1705.82552 763.247768,1705.64137 763.247768,1705.42857 C763.247768,1705.21577 763.325521,1705.03162 763.481027,1704.87612 L764.733259,1703.62388 C764.888765,1703.46838 765.072917,1703.39062 765.285714,1703.39062 C765.498512,1703.39062 765.682664,1703.46838 765.83817,1703.62388 L767.642857,1705.42857 L771.018973,1702.05246 C771.174479,1701.89695 771.358631,1701.8192 771.571429,1701.8192 C771.784226,1701.8192 771.968378,1701.89695 772.123884,1702.05246 L773.376116,1703.30469 C773.531622,1703.46019 773.609375,1703.64435 773.609375,1703.85714 C773.609375,1704.06994 773.531622,1704.25409 773.376116,1704.4096 Z M775.107143,1705.42857 C775.107143,1704.21726 774.808408,1703.10007 774.210938,1702.07701 C773.613467,1701.05394 772.803199,1700.24368 771.780134,1699.64621 C770.757068,1699.04874 769.639881,1698.75 768.428571,1698.75 C767.217262,1698.75 766.100074,1699.04874 765.077009,1699.64621 C764.053943,1700.24368 763.243676,1701.05394 762.646205,1702.07701 C762.048735,1703.10007 761.75,1704.21726 761.75,1705.42857 C761.75,1706.63988 762.048735,1707.75707 762.646205,1708.78013 C763.243676,1709.8032 764.053943,1710.61347 765.077009,1711.21094 C766.100074,1711.80841 767.217262,1712.10714 768.428571,1712.10714 C769.639881,1712.10714 770.757068,1711.80841 771.780134,1711.21094 C772.803199,1710.61347 773.613467,1709.8032 774.210938,1708.78013 C774.808408,1707.75707 775.107143,1706.63988 775.107143,1705.42857 Z M777.857143,1705.42857 C777.857143,1707.13914 777.43564,1708.7167 776.592634,1710.16127 C775.749628,1711.60584 774.605841,1712.74963 773.161272,1713.59263 C771.716704,1714.43564 770.139137,1714.85714 768.428571,1714.85714 C766.718006,1714.85714 765.140439,1714.43564 763.695871,1713.59263 C762.251302,1712.74963 761.107515,1711.60584 760.264509,1710.16127 C759.421503,1708.7167 759,1707.13914 759,1705.42857 C759,1703.71801 759.421503,1702.14044 760.264509,1700.69587 C761.107515,1699.2513 762.251302,1698.10751 763.695871,1697.26451 C765.140439,1696.4215 766.718006,1696 768.428571,1696 C770.139137,1696 771.716704,1696.4215 773.161272,1697.26451 C774.605841,1698.10751 775.749628,1699.2513 776.592634,1700.69587 C777.43564,1702.14044 777.857143,1703.71801 777.857143,1705.42857 Z" id="Shape"></path>
        </g>
    </g>
</svg>