<?xml version="1.0" encoding="UTF-8"?>
<svg width="19px" height="19px" viewBox="0 0 19 19" version="1.1" xmlns="http://www.w3.org/2000/svg" xmlns:xlink="http://www.w3.org/1999/xlink">
    <title>Shape Copy</title>
    <g id="Page-1" stroke="none" stroke-width="1" fill="none" fill-rule="evenodd">
        <g id="Artboard-Copy" transform="translate(-766.000000, -1723.000000)" fill="#2FCC71" fill-rule="nonzero">
            <path d="M779.635415,1732.36814 L776.062604,1729.00173 C775.907098,1728.85669 775.722947,1728.78417 775.510149,1728.78417 C775.297351,1728.78417 775.1132,1728.85669 774.957694,1729.00173 L771.348319,1732.36814 C771.192813,1732.51318 771.11506,1732.68493 771.11506,1732.88341 C771.11506,1733.08188 771.192813,1733.25364 771.348319,1733.39867 L772.600551,1734.56661 C772.756057,1734.71165 772.940208,1734.78417 773.153006,1734.78417 C773.365804,1734.78417 773.549955,1734.71165 773.705461,1734.56661 L775.510149,1732.88341 L777.278272,1734.56661 C777.433778,1734.71165 777.61793,1734.78417 777.830727,1734.78417 C778.043525,1734.78417 778.227677,1734.71165 778.383183,1734.56661 L779.635415,1733.39867 C779.790921,1733.25364 779.868674,1733.08188 779.868674,1732.88341 C779.868674,1732.68493 779.790921,1732.51318 779.635415,1732.36814 Z M782.107143,1732.42857 C782.107143,1731.21726 781.808408,1730.10007 781.210937,1729.07701 C780.613467,1728.05394 779.803199,1727.24368 778.780134,1726.64621 C777.757068,1726.04874 776.639881,1725.75 775.428571,1725.75 C774.217262,1725.75 773.100074,1726.04874 772.077009,1726.64621 C771.053943,1727.24368 770.243676,1728.05394 769.646205,1729.07701 C769.048735,1730.10007 768.75,1731.21726 768.75,1732.42857 C768.75,1733.63988 769.048735,1734.75707 769.646205,1735.78013 C770.243676,1736.8032 771.053943,1737.61347 772.077009,1738.21094 C773.100074,1738.80841 774.217262,1739.10714 775.428571,1739.10714 C776.639881,1739.10714 777.757068,1738.80841 778.780134,1738.21094 C779.803199,1737.61347 780.613467,1736.8032 781.210937,1735.78013 C781.808408,1734.75707 782.107143,1733.63988 782.107143,1732.42857 Z M784.857143,1732.42857 C784.857143,1734.13914 784.43564,1735.7167 783.592634,1737.16127 C782.749628,1738.60584 781.605841,1739.74963 780.161272,1740.59263 C778.716704,1741.43564 777.139137,1741.85714 775.428571,1741.85714 C773.718006,1741.85714 772.140439,1741.43564 770.695871,1740.59263 C769.251302,1739.74963 768.107515,1738.60584 767.264509,1737.16127 C766.421503,1735.7167 766,1734.13914 766,1732.42857 C766,1730.71801 766.421503,1729.14044 767.264509,1727.69587 C768.107515,1726.2513 769.251302,1725.10751 770.695871,1724.26451 C772.140439,1723.4215 773.718006,1723 775.428571,1723 C777.139137,1723 778.716704,1723.4215 780.161272,1724.26451 C781.605841,1725.10751 782.749628,1726.2513 783.592634,1727.69587 C784.43564,1729.14044 784.857143,1730.71801 784.857143,1732.42857 Z" id="Shape-Copy"></path>
        </g>
    </g>
</svg>