<?xml version="1.0" encoding="UTF-8"?>
<svg width="1200pt" height="1200pt" version="1.1" viewBox="0 0 1200 1200" xmlns="http://www.w3.org/2000/svg">
 <path d="m1053.6 920.4c-2.3984-1.1992-62.398-30-40.801-102 26.398-54 33.602-112.8 21.602-171.6-14.398-68.398-55.199-128.4-115.2-166.8-60.004-38.395-129.6-50.395-199.2-35.996-18 3.6016-34.801 9.6016-50.398 16.801-6-34.801-19.199-68.398-38.398-98.398-38.398-58.801-97.199-99.602-166.8-115.2-68.398-14.398-139.2-1.1992-199.2 36s-99.602 97.199-115.2 166.8c-12 58.801-4.8008 117.6 21.602 171.6 20.398 70.801-38.398 100.8-40.801 102-3.6016 2.3984-7.1992 6-7.1992 9.6016 0 4.8008 2.3984 8.3984 6 10.801 73.199 46.801 147.6 12 169.2 0 18 8.3984 36 14.398 55.199 18 18 3.6016 37.199 6 55.199 6 37.199 0 73.199-8.3984 106.8-22.801 1.1992 3.6016 1.1992 7.1992 1.1992 10.801 26.398 123.6 136.8 208.8 258 208.8 18 0 37.199-2.3984 55.199-6 19.199-3.6016 37.199-10.801 55.199-18 21.602 12 96 45.602 169.2 0 3.6016-2.3984 6-6 6-10.801 0-3.6094-3.6016-7.207-7.1992-9.6094zm-694.8-180c-19.199-3.6016-38.398-10.801-55.199-19.199-1.2031-1.1992-3.6016-1.1992-4.8008-1.1992-2.3984 0-4.8008 1.1992-7.1992 2.3984-6 3.6016-68.398 40.801-130.8 12 21.602-18 54-55.199 36-118.8 0-1.1992 0-1.1992-1.1992-2.3984-24-49.199-31.199-103.2-20.398-157.2 13.199-62.398 50.398-116.4 104.4-151.2s117.6-46.801 180-33.602c62.398 13.199 116.4 50.398 151.2 104.4 19.199 30 31.199 62.398 36 96-37.199 20.398-68.398 50.398-92.398 86.398-31.199 49.199-45.602 105.6-40.801 163.2-46.801 22.805-100.8 31.203-154.8 19.203zm285.6-184.8c-14.398 66-55.199 120-108 153.6-1.1992-48 12-96 38.398-136.8 19.199-30 45.602-55.199 74.398-73.199 0.003907 19.195-1.1953 38.398-4.7969 56.398zm249.6 363.6c-3.6016-2.3984-8.3984-3.6016-12-1.1992-18 8.3984-36 15.602-55.199 19.199-129.6 27.602-256.8-55.199-284.4-184.8-1.1992-6-2.3984-10.801-2.3984-16.801 63.602-36 112.8-97.199 129.6-175.2 4.8008-25.199 7.1992-50.398 4.8008-75.602 16.801-8.3984 34.801-14.398 52.801-18 16.801-3.6016 33.602-6 50.398-6 45.602 0 90 13.199 129.6 38.398 54 34.801 91.199 88.801 104.4 151.2 12 54 4.8008 108-20.398 157.2 0 1.1992 0 1.1992-1.1992 2.3984-19.199 63.602 13.199 102 36 118.8-63.609 30.008-124.81-5.9922-132.01-9.5938z"/>
</svg>
