<?xml version="1.0" encoding="UTF-8"?>
<svg width="20px" height="20px" viewBox="0 0 20 20" version="1.1" xmlns="http://www.w3.org/2000/svg" xmlns:xlink="http://www.w3.org/1999/xlink">
    <title>Artboard</title>
    <g id="Artboard" stroke="none" stroke-width="1" fill="none" fill-rule="evenodd">
        <path d="M1.28345755,13.5064404 L0.0396827519,17.7699015 C-0.170671993,18.4929465 0.489689718,19.1670586 1.20851338,18.9630245 L5.45280011,17.7515229 C9.04113305,19.5665846 13.3979073,18.939325 16.2609852,16.0488037 C19.9130049,12.3627297 19.9130049,6.35661882 16.2609852,2.67057358 C12.6089559,-1.01547165 6.37090172,-0.724501134 3.12363169,2.55256514 C-0.123628832,5.82964101 -0.470258644,9.89594205 1.28345755,13.5064404 Z M6.27018808,15.2207497 C6.07307481,15.107737 5.83924786,15.078858 5.62083284,15.1405207 L3.05984552,15.8685712 L3.8099894,13.3056345 C3.87474331,13.0857694 3.84902846,12.8489187 3.73853096,12.6483718 C2.28395283,10.0203804 2.56980356,6.9168591 4.93333815,4.5372188 C7.29687273,2.15756995 11.6755693,1.98973838 14.2895224,4.62189074 C16.903501,7.25400892 16.903484,11.4961499 14.2895224,14.1281143 C12.1622675,16.2705621 8.88595738,16.7177256 6.27018808,15.2207497 Z" id="path2142" fill="#556DC9" fill-rule="nonzero"></path>
    </g>
</svg>