<?xml version="1.0" encoding="UTF-8"?>
<svg width="19px" height="19px" viewBox="0 0 19 19" version="1.1" xmlns="http://www.w3.org/2000/svg" xmlns:xlink="http://www.w3.org/1999/xlink">
    <title>Shape</title>
    <g id="Page-1" stroke="none" stroke-width="1" fill="none" fill-rule="evenodd">
        <g id="Artboard-Copy" transform="translate(-889.000000, -1696.000000)" fill="#E74B3C" fill-rule="nonzero">
            <path d="M904.545833,1705.7237 C904.545833,1704.45191 904.202214,1703.28676 903.514974,1702.22826 L894.580859,1711.15052 C895.663064,1711.85356 896.836111,1712.20508 898.1,1712.20508 C898.976823,1712.20508 899.812174,1712.03327 900.606055,1711.68965 C901.399935,1711.34603 902.0852,1710.88589 902.661849,1710.30924 C903.238498,1709.7326 903.696658,1709.04338 904.036328,1708.2416 C904.375998,1707.43982 904.545833,1706.60052 904.545833,1705.7237 Z M892.708724,1709.26654 L901.654688,1700.33242 C900.588281,1699.61359 899.403385,1699.25417 898.1,1699.25417 C896.930903,1699.25417 895.852648,1699.54249 894.865234,1700.11914 C893.877821,1700.69579 893.09579,1701.48177 892.519141,1702.47708 C891.942491,1703.4724 891.654167,1704.5546 891.654167,1705.7237 C891.654167,1707.00339 892.005686,1708.18433 892.708724,1709.26654 Z M907.2,1705.7237 C907.2,1706.96389 906.959071,1708.14878 906.477214,1709.27839 C905.995356,1710.40799 905.349588,1711.3796 904.539909,1712.19323 C903.73023,1713.00686 902.762565,1713.6546 901.636914,1714.13646 C900.511263,1714.61832 899.332292,1714.85924 898.1,1714.85924 C896.867708,1714.85924 895.688737,1714.61832 894.563086,1714.13646 C893.437435,1713.6546 892.46977,1713.00686 891.660091,1712.19323 C890.850412,1711.3796 890.204644,1710.40799 889.722786,1709.27839 C889.240929,1708.14878 889,1706.96389 889,1705.7237 C889,1704.48351 889.240929,1703.30059 889.722786,1702.17493 C890.204644,1701.04928 890.850412,1700.07964 891.660091,1699.26602 C892.46977,1698.45239 893.437435,1697.80464 894.563086,1697.32279 C895.688737,1696.84093 896.867708,1696.6 898.1,1696.6 C899.332292,1696.6 900.511263,1696.84093 901.636914,1697.32279 C902.762565,1697.80464 903.73023,1698.45239 904.539909,1699.26602 C905.349588,1700.07964 905.995356,1701.04928 906.477214,1702.17493 C906.959071,1703.30059 907.2,1704.48351 907.2,1705.7237 Z" id="Shape"></path>
        </g>
    </g>
</svg>