<?xml version="1.0" encoding="UTF-8"?>
<svg width="280px" height="240px" viewBox="0 0 280 240" version="1.1" xmlns="http://www.w3.org/2000/svg" xmlns:xlink="http://www.w3.org/1999/xlink">
    <title>foundation copy</title>
    <g id="foundation-copy" stroke="none" stroke-width="1" fill="none" fill-rule="evenodd">
        <path d="M57.2798665,25.8263255 L2.4651402,116.26926 C1.11362097,118.499234 1.11362097,121.295591 2.4651402,123.525564 L57.2798665,213.968499 C59.2836395,217.274675 63.5882034,218.330481 66.8943791,216.326708 C67.8589571,215.742106 68.6679861,214.933077 69.2525876,213.968499 L124.067314,123.525564 C125.418833,121.295591 125.418833,118.499234 124.067314,116.26926 L69.2525876,25.8263255 C67.2488146,22.5201499 62.9442507,21.4643439 59.638075,23.468117 C58.673497,24.0527185 57.864468,24.8617475 57.2798665,25.8263255 Z" id="Path-7" fill="#1C1C1E"></path>
        <path d="M100.51318,11.6018877 L153.465872,99.8424649 C154.730992,101.950666 157.009406,103.240577 159.468072,103.240577 L267.620324,103.240577 C271.486317,103.240577 274.620324,100.106571 274.620324,96.2405773 C274.620324,94.9626968 274.270518,93.7091961 273.60883,92.6159682 L220.200255,4.37539092 C218.932049,2.28008763 216.66096,1 214.211748,1 L106.51538,1 C102.649387,1 99.5153805,4.13400675 99.5153805,8 C99.5153805,9.26887287 99.8602751,10.5138836 100.51318,11.6018877 Z" id="Path-8" fill="#1C1C1E" transform="translate(187.095268, 52.120289) rotate(0.100000) translate(-187.095268, -52.120289) "></path>
        <path d="M100.51318,147.36131 L153.465872,235.601888 C154.730992,237.710089 157.009406,239 159.468072,239 L267.620324,239 C271.486317,239 274.620324,235.865993 274.620324,232 C274.620324,230.72212 274.270518,229.468619 273.60883,228.375391 L220.200255,140.134814 C218.932049,138.03951 216.66096,136.759423 214.211748,136.759423 L106.51538,136.759423 C102.649387,136.759423 99.5153805,139.893429 99.5153805,143.759423 C99.5153805,145.028296 99.8602751,146.273306 100.51318,147.36131 Z" id="Path-8-Copy" fill="#1C1C1E" transform="translate(187.095268, 187.879711) scale(1, -1) translate(-187.095268, -187.879711) "></path>
    </g>
</svg>