<?xml version="1.0" ?><svg style="enable-background:new 0 0 48 48;" version="1.1" viewBox="0 0 48 48" xml:space="preserve" xmlns="http://www.w3.org/2000/svg" xmlns:xlink="http://www.w3.org/1999/xlink"><style type="text/css">
	.st0{fill:none;stroke:#303030;stroke-width:0.65;stroke-linecap:round;stroke-linejoin:round;stroke-miterlimit:10;}
	.st1{fill:none;stroke:#303030;stroke-width:0.5;stroke-linecap:round;stroke-linejoin:round;stroke-miterlimit:10;}
	.st2{fill:#303030;}
	.st3{fill:none;stroke:#303030;stroke-width:0.6;stroke-linecap:round;stroke-linejoin:round;stroke-miterlimit:10;}
	.st4{fill:none;stroke:#303030;stroke-width:0.55;stroke-linecap:round;stroke-linejoin:round;stroke-miterlimit:10;}
	.st5{fill:none;stroke:#303030;stroke-width:0.38;stroke-linecap:round;stroke-linejoin:round;stroke-miterlimit:10;}
	.st6{fill:none;stroke:#303030;stroke-width:0.45;stroke-linecap:round;stroke-linejoin:round;stroke-miterlimit:10;}
	.st7{fill:none;stroke:#303030;stroke-width:0.44;stroke-linecap:round;stroke-linejoin:round;stroke-miterlimit:10;}
	.st8{fill:none;stroke:#303030;stroke-width:0.35;stroke-linecap:round;stroke-linejoin:round;stroke-miterlimit:10;}
	.st9{fill:none;stroke:#303030;stroke-width:0.4;stroke-linecap:round;stroke-linejoin:round;stroke-miterlimit:10;}
	.st10{fill:none;stroke:#303030;stroke-width:0.7;stroke-linecap:round;stroke-linejoin:round;stroke-miterlimit:10;}
	.st11{fill:none;stroke:#303030;stroke-width:0.3;stroke-linecap:round;stroke-linejoin:round;stroke-miterlimit:10;}
	.st12{fill:none;stroke:#303030;stroke-width:0.33;stroke-linecap:round;stroke-linejoin:round;stroke-miterlimit:10;}
</style><g id="Padding__x26__Artboard"/><g id="Icons"><g><path class="st3" d="M40.5,24.21c0,0-2.77-14.11-18.18-13.73c0,0-16.37-0.51-16.25,22.88c0,0,9.81,3.82,21.39,2.59l3.23,1.59    l2.7-0.71l0.12-8.52c0,0-0.01-0.83,0.2-1.14c0,0,2.11,1.02,2.55,2.29l0.08,4.63l3.1,1.43l2.5-0.83v-6.69    C41.93,27.99,41.83,26.04,40.5,24.21z"/><path class="st3" d="M40.5,24.21c0,0-1.35-3-5.07-2.33c-3.56,0.65-4.38,4.63-4.63,6.89c-0.02,0.2-0.03,0.4-0.03,0.6v8.17"/><path class="st3" d="M33.71,27.16c0,0,0.83-2.6,2.81-2.45c1.98,0.16,2.91,2.78,2.86,3.57v7.23"/><path class="st3" d="M35.47,24.91c0,0,0.77,0.73,0.77,1.71l0.01,3.03"/><path class="st3" d="M37.84,21.97c0,0-3.41-1.25-6.48-0.19c-1.44,0.5-2.61,1.61-3.18,3.03c-0.32,0.81-0.61,1.87-0.66,3.19    l-0.07,7.94"/><path class="st3" d="M14.33,13.03c1.11,0.5,2.31,0.83,3.51,1.07c2.71,0.53,5.52,0.23,8.21-0.23c1.74-0.3,3.44-0.66,4.86-1.77"/><path class="st3" d="M9.8,17.66c0,0,5.85,2.85,14.44,1.98c8.58-0.87,10.37-1.85,12.31-3.24"/><path class="st3" d="M7.43,22.85c0,0,9.16,3.99,20.75,1.97"/><path class="st3" d="M6.29,28.65c0,0,10.04,3.67,21.21,2.3"/><line class="st3" x1="15.15" x2="12.04" y1="13.36" y2="18.5"/><line class="st3" x1="21.85" x2="22" y1="14.36" y2="19.79"/><line class="st3" x1="29.06" x2="32.65" y1="13.24" y2="18.28"/><line class="st3" x1="16.89" x2="15.85" y1="19.54" y2="24.91"/><line class="st3" x1="28.74" x2="29.76" y1="19.08" y2="22.68"/><line class="st3" x1="10.22" x2="8.93" y1="23.8" y2="29.45"/><line class="st3" x1="21.2" x2="20.87" y1="25.39" y2="31.23"/><line class="st3" x1="14.38" x2="13.86" y1="30.61" y2="35.27"/><line class="st3" x1="25.14" x2="25.21" y1="31.26" y2="36.12"/><polyline class="st3" points="36.26,29.95 39.38,31.26 41.93,30.46   "/><polyline class="st3" points="36.23,26.38 39.29,27.61 41.72,26.79   "/><line class="st3" x1="39.74" x2="38.13" y1="23.15" y2="25.39"/><line class="st3" x1="36.23" x2="36.26" y1="21.79" y2="24.53"/><polyline class="st3" points="34.43,25.58 32.12,24.27 29.17,23.23   "/><polyline class="st3" points="33.5,28.65 30.77,29.36 27.52,28.01   "/><polyline class="st3" points="33.45,32.36 30.77,32.94 27.52,31.72   "/></g></g></svg>