<?xml version="1.0" ?><svg viewBox="0 0 64 64" xmlns="http://www.w3.org/2000/svg"><title/><g id="Guides"><path d="M32,28A23.026,23.026,0,0,0,9,51v1H55V51A23.026,23.026,0,0,0,32,28Z" style="fill:#00acea"/><path d="M38.75,42.08a1,1,0,0,1-.566-.176A10.861,10.861,0,0,0,32,40a1,1,0,0,1,0-2h6.2a1,1,0,0,1,.96.72c.164.565.327,1.139.472,1.734l0,.009.09.39a1,1,0,0,1-.974,1.227Z"/><path d="M54.133,44.732h0v0h0a22.391,22.391,0,0,0-2.85-6.267l0-.008a23.158,23.158,0,0,0-2.457-3.135A1,1,0,0,0,48.09,35H46.5A2.5,2.5,0,0,0,44,37.5a.478.478,0,0,1-.24.424l0,0-.006,0A.487.487,0,0,1,43.5,38a.5.5,0,0,1-.5-.5A2.5,2.5,0,0,0,40.5,35H23.09A3.093,3.093,0,0,0,20,38.09V39.5a.5.5,0,0,1-1,0V38.09A3.093,3.093,0,0,0,15.91,35a1,1,0,0,0-.73.317,23.072,23.072,0,0,0-2.456,3.135,22.4,22.4,0,0,0-2.855,6.275h0v0h0A23.056,23.056,0,0,0,9,51a1,1,0,0,0,1,1H20a1,1,0,0,0,1-1,10.981,10.981,0,0,1,1.465-5.5h0a11.154,11.154,0,0,1,3.346-3.592l0,0,0,0A10.861,10.861,0,0,1,32,40h5.437c.084.3.174.6.25.917l.089.39a1,1,0,0,0,.413.6A11.154,11.154,0,0,1,41.535,45.5h0A10.981,10.981,0,0,1,43,51a1,1,0,0,0,1,1H54a1,1,0,0,0,1-1A23.056,23.056,0,0,0,54.133,44.732ZM46,37.5a.5.5,0,0,1,.5-.5h1.149q.434.483.841,1H45.949A2.517,2.517,0,0,0,46,37.5ZM23.09,37H31v1H22A1.092,1.092,0,0,1,23.09,37Zm-6.8.068a1.086,1.086,0,0,1,.7.932H15.522C15.772,37.683,16.024,37.367,16.289,37.068ZM11.6,46H15.63a21.539,21.539,0,0,0-.59,4H11.023A21.052,21.052,0,0,1,11.6,46Zm7.437,4h-2a19.935,19.935,0,0,1,.658-4h2.294A13.033,13.033,0,0,0,19.038,50Zm2-6H12.192a20.536,20.536,0,0,1,1.927-4h2.932a2.5,2.5,0,0,0,4.9,0h2.532c-.04.152-.079.307-.116.463l0,.019A13.178,13.178,0,0,0,21.04,44ZM33,37h7.5a.5.5,0,0,1,.5.5,2.577,2.577,0,0,0,.05.5H33Zm6.639,3.482-.007-.028c-.037-.152-.075-.3-.114-.454H49.892a20.547,20.547,0,0,1,1.916,4H42.96A13.178,13.178,0,0,0,39.639,40.482ZM44.008,46H46.3a19.935,19.935,0,0,1,.658,4h-2A13.033,13.033,0,0,0,44.008,46Zm4.952,4a21.539,21.539,0,0,0-.59-4H52.4a21.052,21.052,0,0,1,.578,4Z" style="fill:#7fc8f1"/><path d="M43.264,44.5a13.153,13.153,0,0,0-3.948-4.24,12.992,12.992,0,0,0-14.627,0A13.174,13.174,0,0,0,20.734,44.5,12.982,12.982,0,0,0,19,51a1,1,0,0,0,1,1h4a1,1,0,0,0,1-1,7,7,0,0,1,14,0,1,1,0,0,0,1,1h4a1,1,0,0,0,1-1A12.983,12.983,0,0,0,43.264,44.5Z" style="fill:#a3d9f6"/><path d="M32,30a1,1,0,0,1-1-1V21a1,1,0,0,1,2,0v8A1,1,0,0,1,32,30Z" style="fill:#ffa91f"/><path d="M43.118,17,44.9,13.447A1,1,0,0,0,44,12H32a1,1,0,0,0-1,1v8a1,1,0,0,0,1,1H44a1,1,0,0,0,.9-1.447Z" style="fill:#ffb74f"/><path d="M32,42a9.01,9.01,0,0,0-9,9,1,1,0,0,0,1,1H40a1,1,0,0,0,1-1A9.01,9.01,0,0,0,32,42Z" style="fill:#f5f5f5"/><path d="M60,52H4a1,1,0,0,1,0-2H60a1,1,0,0,1,0,2Z" style="fill:#78777f"/><path d="M48.822,35.319a22.979,22.979,0,0,0-33.644,0A1,1,0,0,0,15.91,37,1.091,1.091,0,0,1,17,38.09V39.5a2.5,2.5,0,0,0,5,0V38.09A1.091,1.091,0,0,1,23.09,37H40.5a.5.5,0,0,1,.5.5,2.5,2.5,0,0,0,5,0,.5.5,0,0,1,.5-.5h1.59a1,1,0,0,0,.732-1.681Z" style="fill:#e1e4fb"/><path d="M60,50H54.966a23.048,23.048,0,0,0-.833-5.268h0v0h0a22.391,22.391,0,0,0-2.85-6.267l0-.008a23.158,23.158,0,0,0-2.457-3.135l0,0A22.873,22.873,0,0,0,33,28.038V22H44a1,1,0,0,0,.9-1.447L43.118,17,44.9,13.447A1,1,0,0,0,44,12H32a1,1,0,0,0-1,1V28.038a22.832,22.832,0,0,0-12.226,4.144,23.145,23.145,0,0,0-6.05,6.27,22.4,22.4,0,0,0-2.855,6.275h0v0h0A23.048,23.048,0,0,0,9.034,50H4a1,1,0,0,0,0,2H60a1,1,0,0,0,0-2ZM32,44a7.007,7.007,0,0,1,6.92,6H25.08A7.011,7.011,0,0,1,32,44Zm0-2a9.037,9.037,0,0,0-8.944,8H21.065A10.959,10.959,0,0,1,32,40q.419,0,.833.031A10.973,10.973,0,0,1,42.935,50H40.944A9.035,9.035,0,0,0,32,42ZM19.992,46a13.452,13.452,0,0,0-.954,4h-2a19.935,19.935,0,0,1,.658-4Zm2.065-8.19a1.05,1.05,0,0,1,.047-.171,1.08,1.08,0,0,1,.135-.2,1.145,1.145,0,0,1,.1-.131,1.071,1.071,0,0,1,.221-.149.989.989,0,0,1,.119-.075A1.069,1.069,0,0,1,23.09,37H31v1H22.018A1.085,1.085,0,0,1,22.057,37.81ZM40.5,37a.5.5,0,0,1,.5.5,2.577,2.577,0,0,0,.05.5H33V37Zm7.149,0q.434.483.841,1H45.949A2.517,2.517,0,0,0,46,37.5C46,36.734,47.117,37.072,47.649,37Zm-3.641,9H46.3a19.935,19.935,0,0,1,.658,4h-2A13.62,13.62,0,0,0,44.008,46ZM42.96,44a13.964,13.964,0,0,0-3.321-3.518c-.025-.1-.058-.236-.121-.482H49.892a20.547,20.547,0,0,1,1.916,4ZM33,14h9.382l-1.277,2.553a1,1,0,0,0,0,.894L42.382,20H33ZM19.925,33.818a20.982,20.982,0,0,1,25.814,1.3A2.5,2.5,0,0,0,44.38,36.19c-.611.985-.153,1.464-.629,1.739-.414.246-.784-.268-.683-.192A.468.468,0,0,1,43,37.5,2.5,2.5,0,0,0,40.5,35H23.09A3.093,3.093,0,0,0,20,38.09V39.5a.5.5,0,0,1-1,0c-.1-.346.485-2.621-1.27-3.906A20.9,20.9,0,0,1,19.925,33.818Zm-3.642,3.257a1.079,1.079,0,0,1,.7.925h-1.46C15.77,37.685,16.02,37.372,16.283,37.075ZM14.119,40h2.932A2.5,2.5,0,0,0,19.5,42a2.531,2.531,0,0,0,2.45-2h2.532c-.04.152-.079.307-.116.463l0,.019A13.731,13.731,0,0,0,21.04,44H12.192A20.536,20.536,0,0,1,14.119,40ZM11.6,46H15.63a21.539,21.539,0,0,0-.59,4H11.023A21.052,21.052,0,0,1,11.6,46ZM48.96,50a21.539,21.539,0,0,0-.59-4H52.4a21.052,21.052,0,0,1,.578,4Z" style="fill:#002d6b"/></g></svg>