<?xml version="1.0" ?><svg viewBox="0 0 64 64" xmlns="http://www.w3.org/2000/svg"><g id="flat"><rect height="8" style="fill:#50b4f8" width="14" x="10" y="39"/><rect height="6" style="fill:#cdeef6" width="21" x="3" y="47"/><rect height="6" style="fill:#4f97d5" width="21" x="40" y="47"/><rect height="8" style="fill:#cdeef6" width="16" x="16" y="31"/><rect height="8" style="fill:#afe0e8" width="16" x="32" y="31"/><rect height="8" style="fill:#cdeef6" width="14" x="40" y="39"/><rect height="19" style="fill:#195c85" width="14" x="25" y="42"/><rect height="6" style="fill:#da1c4b" width="10" x="32" y="3"/><rect height="20" style="fill:#2d75bb" width="2" x="31" y="3"/><path d="M42.943,42A12.979,12.979,0,0,0,32,36v6Z" style="fill:#f4f4e6"/><path d="M21.057,42H32V36A12.979,12.979,0,0,0,21.057,42Z" style="fill:#dddcc5"/><rect height="7" style="fill:#f4f4e6" width="6" x="19" y="54"/><path d="M25,49a7.014,7.014,0,0,1,.08-1H19.051c-.026.331-.051.662-.051,1v5h6Z" style="fill:#dddcc5"/><path d="M32,42H21.057a12.9,12.9,0,0,0-2.006,6H25.08A6.994,6.994,0,0,1,32,42Z" style="fill:#f4f4e6"/><rect height="7" style="fill:#dddcc5" transform="translate(84 115) rotate(-180)" width="6" x="39" y="54"/><path d="M39,49a7.014,7.014,0,0,0-.08-1h6.029c.026.331.051.662.051,1v5H39Z" style="fill:#f4f4e6"/><path d="M32,42H42.943a12.9,12.9,0,0,1,2.006,6H38.92A6.994,6.994,0,0,0,32,42Z" style="fill:#dddcc5"/><path d="M32,23V15a28.893,28.893,0,0,0-19.988,8Z" style="fill:#cdeef6"/><path d="M6.079,31H23V23H12.012A29.068,29.068,0,0,0,6.079,31Z" style="fill:#50b4f8"/><path d="M3.438,39H16V31H6.079A28.761,28.761,0,0,0,3.438,39Z" style="fill:#4f97d5"/><path d="M10,47V39H3.438A29.21,29.21,0,0,0,3,44v3Z" style="fill:#afe0e8"/><rect height="6" style="fill:#4f97d5" width="8" x="11" y="53"/><rect height="6" style="fill:#50b4f8" width="8" x="3" y="53"/><rect height="6" style="fill:#cdeef6" width="8" x="53" y="53"/><rect height="6" style="fill:#50b4f8" width="8" x="45" y="53"/><rect height="8" style="fill:#4f97d5" width="18" x="23" y="23"/><path d="M32,23V15a28.893,28.893,0,0,1,19.988,8Z" style="fill:#50b4f8"/><path d="M57.921,31H41V23H51.988A29.068,29.068,0,0,1,57.921,31Z" style="fill:#cdeef6"/><path d="M60.562,39H48V31h9.921A28.761,28.761,0,0,1,60.562,39Z" style="fill:#4f97d5"/><path d="M54,47V39h6.562A29.21,29.21,0,0,1,61,44v3Z" style="fill:#50b4f8"/></g></svg>