<?xml version="1.0" ?><svg id="Layer_1" style="enable-background:new 0 0 512 512;" version="1.1" viewBox="0 0 512 512" xml:space="preserve" xmlns="http://www.w3.org/2000/svg" xmlns:xlink="http://www.w3.org/1999/xlink"><style type="text/css">
	.st0{fill:#DB3429;}
	.st1{fill:#B3271E;}
	.st2{fill:#9CD3FC;}
	.st3{fill:#CDE9FE;}
	.st4{fill:#6ABDFB;}
	.st5{fill:#213762;}
</style><g id="XMLID_1_"><g id="XMLID_4271_"><polygon class="st0" id="XMLID_1765_" points="377,125 297,125 297,75 377,75 357,100   "/><g id="XMLID_1764_"><rect class="st1" height="158" id="XMLID_2694_" width="10" x="292" y="75"/></g><path class="st2" d="M87,437v-62c0-116,94-210,210-210h0c116,0,210,94,210,210v62H87z" id="XMLID_1777_"/><path class="st3" d="M121.3,260h351.4c-7.5-11.5-16.2-22.2-25.8-32H147.1C137.5,237.8,128.8,248.5,121.3,260z" id="XMLID_1757_"/><path class="st3" d="M408.5,197c-32.3-20.3-70.5-32-111.5-32h0c-40.9,0-79.1,11.7-111.5,32H408.5z" id="XMLID_1760_"/><path class="st3" d="M92.3,328h409.4c-2.5-11-5.9-21.7-10.1-32H102.4C98.2,306.3,94.8,317,92.3,328z" id="XMLID_1753_"/><path class="st3" d="M87,375v21h420v-21c0-3.7-0.1-7.4-0.3-11H87.3C87.1,367.6,87,371.3,87,375z" id="XMLID_1749_"/><path class="st4" d="M457,354v-38c0-5.5,4.5-10,10-10h28.4c-1.2-3.4-2.4-6.7-3.8-10H417c-5.5,0-10-4.5-10-10v-38    c0-5.5,4.5-10,10-10h39.2c-3-3.4-6-6.8-9.2-10H362c-5.5,0-10-4.5-10-10v-45.7c-3.3-0.9-6.6-1.7-10-2.4V218c0,5.5-4.5,10-10,10h-75    c-5.5,0-10-4.5-10-10v-47c-3.4,0.8-6.7,1.7-10,2.7V218c0,5.5-4.5,10-10,10h-79.9c-3.2,3.2-6.2,6.6-9.2,10H177c5.5,0,10,4.5,10,10    v38c0,5.5-4.5,10-10,10h-74.6c-1.3,3.3-2.6,6.6-3.8,10H332c5.5,0,10,4.5,10,10v38c0,5.5-4.5,10-10,10H87.3    c-0.2,3.3-0.3,6.6-0.3,10h195c5.5,0,10,4.5,10,10v53h10v-53c0-5.5,4.5-10,10-10h75c5.5,0,10,4.5,10,10v53h10v-53    c0-5.5,4.5-10,10-10h75c5.5,0,10,4.5,10,10v53h5v-62c0-3.7-0.1-7.4-0.3-11H467C461.5,364,457,359.5,457,354z M282,296h-75    c-5.5,0-10-4.5-10-10v-38c0-5.5,4.5-10,10-10h75c5.5,0,10,4.5,10,10v38C292,291.5,287.5,296,282,296z M302,286v-38    c0-5.5,4.5-10,10-10h75c5.5,0,10,4.5,10,10v38c0,5.5-4.5,10-10,10h-75C306.5,296,302,291.5,302,286z M437,364h-75    c-5.5,0-10-4.5-10-10v-38c0-5.5,4.5-10,10-10h75c5.5,0,10,4.5,10,10v38C447,359.5,442.5,364,437,364z" id="XMLID_1751_"/><path class="st3" d="M181,277H87c-45.3,0-82,36.7-82,82v78h258v-78C263,313.7,226.3,277,181,277z" id="XMLID_1766_"/><path class="st2" d="M233.5,296H126v10h117.5C240.5,302.4,237.1,299,233.5,296z" id="XMLID_1755_"/><rect class="st2" height="10" id="XMLID_1762_" width="115" x="148" y="364"/><path class="st2" d="M87,277L87,277c-45.3,0-82,36.7-82,82v78h164v-78C169,313.7,132.3,277,87,277z" id="XMLID_1768_"/><path class="st4" d="M87,317L87,317c-23.2,0-42,18.8-42,42v78h84v-78C129,335.8,110.2,317,87,317z" id="XMLID_1767_"/></g><g id="XMLID_4543_"><g id="XMLID_27_"><path class="st5" d="M169,442H5c-2.8,0-5-2.2-5-5v-78c0-48,39-87,87-87s87,39,87,87v78     C174,439.8,171.8,442,169,442z M10,432h154v-73c0-42.5-34.5-77-77-77s-77,34.5-77,77V432z" id="XMLID_4785_"/></g><g id="XMLID_372_"><path class="st5" d="M129,442H45c-2.8,0-5-2.2-5-5v-78c0-25.9,21.1-47,47-47s47,21.1,47,47v78     C134,439.8,131.8,442,129,442z M50,432h74v-73c0-20.4-16.6-37-37-37s-37,16.6-37,37V432z" id="XMLID_4782_"/></g><g id="XMLID_366_"><path class="st5" d="M263,442H5c-2.8,0-5-2.2-5-5v-78c0-48,39-87,87-87h94c48,0,87,39,87,87v78     C268,439.8,265.8,442,263,442z M10,432h248v-73c0-42.5-34.5-77-77-77H87c-42.5,0-77,34.5-77,77V432z" id="XMLID_4779_"/></g><g id="XMLID_1892_"><path class="st5" d="M302,165h-10V75c0-2.8,2.2-5,5-5h80c1.9,0,3.7,1.1,4.5,2.8c0.8,1.7,0.6,3.8-0.6,5.3     L363.4,100l17.5,21.9c1.2,1.5,1.4,3.6,0.6,5.3c-0.8,1.7-2.6,2.8-4.5,2.8h-60v-10h49.6l-13.5-16.9c-1.5-1.8-1.5-4.4,0-6.2     L366.6,80H302V165z" id="XMLID_4778_"/></g><g id="XMLID_371_"><rect class="st5" height="10" id="XMLID_4777_" width="310" x="142" y="228"/></g><g id="XMLID_373_"><rect class="st5" height="10" id="XMLID_4776_" width="255" x="239" y="296"/></g><g id="XMLID_374_"><rect class="st5" height="10" id="XMLID_4775_" width="244" x="263" y="364"/></g><g id="XMLID_369_"><g id="XMLID_367_"><rect class="st5" height="68" id="XMLID_4774_" width="10" x="502" y="369"/></g><g id="XMLID_375_"><rect class="st5" height="68" id="XMLID_4773_" width="10" x="397" y="369"/></g><g id="XMLID_376_"><rect class="st5" height="68" id="XMLID_4772_" width="10" x="292" y="369"/></g></g><g id="XMLID_380_"><g id="XMLID_390_"><rect class="st5" height="68" id="XMLID_4771_" width="10" x="397" y="233"/></g><g id="XMLID_389_"><rect class="st5" height="68" id="XMLID_4770_" width="10" x="292" y="233"/></g><g id="XMLID_388_"><rect class="st5" height="45" id="XMLID_4769_" width="10" x="187" y="233"/></g></g><g id="XMLID_381_"><g id="XMLID_386_"><rect class="st5" height="68" id="XMLID_4768_" width="10" x="447" y="301"/></g><g id="XMLID_385_"><rect class="st5" height="68" id="XMLID_4767_" width="10" x="342" y="301"/></g></g><g id="XMLID_392_"><g id="XMLID_396_"><rect class="st5" height="62" id="XMLID_4766_" width="10" x="342" y="171"/></g><g id="XMLID_395_"><rect class="st5" height="62" id="XMLID_4765_" width="10" x="237" y="171"/></g></g><g id="XMLID_442_"><path class="st5" d="M507,442H87v-10h415v-57c0-113-92-205-205-205c-67.9,0-131.3,33.6-169.6,89.8l-8.3-5.6     c40.1-59,106.6-94.2,177.9-94.2c57.4,0,111.4,22.4,152,63c40.6,40.6,63,94.6,63,152v62C512,439.8,509.8,442,507,442z" id="XMLID_4764_"/></g></g></g></svg>